<?xml version="1.0" standalone="no"?>
<!DOCTYPE svg PUBLIC "-//W3C//DTD SVG 20010904//EN"
 "http://www.w3.org/TR/2001/REC-SVG-20010904/DTD/svg10.dtd">
<svg version="1.0" xmlns="http://www.w3.org/2000/svg"
 width="225.000000pt" height="225.000000pt" viewBox="0 0 225.000000 225.000000"
 preserveAspectRatio="xMidYMid meet">

<g transform="translate(0.000000,225.000000) scale(0.100000,-0.100000)"
fill="#000000" stroke="none">
<path d="M927 2235 c-260 -49 -508 -196 -674 -400 -92 -113 -182 -290 -220
-430 -24 -91 -27 -116 -27 -280 0 -163 3 -189 27 -278 107 -397 417 -707 814
-814 145 -39 411 -39 556 0 397 107 707 417 814 814 24 89 27 115 27 278 0
163 -3 189 -27 278 -107 397 -420 711 -814 814 -125 32 -354 41 -476 18z m428
-399 c116 -37 198 -89 295 -186 96 -96 148 -178 187 -295 24 -73 27 -94 27
-230 0 -136 -3 -157 -27 -230 -39 -117 -91 -199 -187 -295 -96 -96 -178 -148
-295 -187 -73 -24 -94 -27 -230 -27 -136 0 -157 3 -230 27 -117 39 -199 91
-295 187 -96 96 -148 178 -187 295 -24 73 -27 94 -27 230 0 136 3 157 27 230
83 250 294 441 552 501 97 22 291 13 390 -20z"/>
</g>
</svg>
