<?xml version="1.0" standalone="no"?>
<!DOCTYPE svg PUBLIC "-//W3C//DTD SVG 20010904//EN"
 "http://www.w3.org/TR/2001/REC-SVG-20010904/DTD/svg10.dtd">
<svg version="1.0" xmlns="http://www.w3.org/2000/svg"
 width="206.000000pt" height="244.000000pt" viewBox="0 0 206.000000 244.000000"
 preserveAspectRatio="xMidYMid meet">

<g transform="translate(0.000000,244.000000) scale(0.100000,-0.100000)"
fill="#000000" stroke="none">
<path d="M1628 2317 c-122 -114 -332 -329 -552 -567 -49 -52 -92 -96 -96 -98
-11 -4 -180 239 -305 438 -109 174 -154 225 -188 214 -36 -11 -57 -35 -71 -83
-19 -65 -35 -71 -82 -33 l-38 32 -47 -46 c-26 -26 -55 -61 -65 -79 -17 -32
-17 -36 1 -97 21 -68 90 -244 148 -373 37 -82 63 -133 169 -333 60 -113 60
-114 41 -135 -102 -114 -370 -429 -434 -509 -121 -151 -114 -134 -85 -212 l25
-67 -21 -43 -21 -44 26 -44 c14 -24 43 -63 64 -87 l39 -45 43 17 c51 21 62 16
54 -24 -5 -25 0 -36 28 -65 57 -58 64 -54 200 134 66 92 182 247 257 345 129
169 137 177 153 160 9 -10 62 -83 118 -163 122 -175 237 -317 263 -326 24 -7
88 34 119 76 28 37 41 37 83 5 18 -14 40 -25 50 -25 9 0 37 19 61 41 34 31 44
47 40 63 -4 17 8 32 60 74 64 52 89 87 106 145 7 26 2 36 -63 110 -63 74 -403
504 -422 535 -13 21 246 325 559 655 96 102 175 190 175 195 0 6 9 27 21 46
22 39 20 50 -29 114 -20 26 -30 32 -49 27 -16 -4 -34 1 -53 15 -24 17 -28 26
-23 50 5 26 -1 36 -48 80 -30 27 -59 50 -66 50 -7 0 -72 -56 -145 -123z"/>
</g>
</svg>
